<svg xmlns="http://www.w3.org/2000/svg" width="129" height="20" viewBox="0 0 129 20" fill="none">
	<mask id="mask0" mask-type="alpha" maskUnits="userSpaceOnUse" x="0" y="0" width="129" height="20">
		<path
			d="M126 0H3C1.34315 0 0 1.34315 0 3V17C0 18.6569 1.34315 20 3 20H126C127.657 20 129 18.6569 129 17V3C129 1.34315 127.657 0 126 0Z"
			fill="white" />
	</mask>
	<g mask="url(#mask0)">
		<path d="M0 0L56 0V20H0V0Z" fill="#555555" />
		<path d="M56 0H129V20H56V0Z" fill="#F03030" />
		<path
			d="M82.5918 13.6304L84.8262 7.17969H85.9541L83.0537 15H82.1406L79.2456 7.17969H80.3682L82.5918 13.6304ZM87.9307 15H86.937V9.18848H87.9307V15ZM86.8564 7.64697C86.8564 7.48584 86.9048 7.34977 87.0015 7.23877C87.1017 7.12777 87.2485 7.07227 87.4419 7.07227C87.6353 7.07227 87.7821 7.12777 87.8823 7.23877C87.9826 7.34977 88.0327 7.48584 88.0327 7.64697C88.0327 7.80811 87.9826 7.94238 87.8823 8.0498C87.7821 8.15723 87.6353 8.21094 87.4419 8.21094C87.2485 8.21094 87.1017 8.15723 87.0015 8.0498C86.9048 7.94238 86.8564 7.80811 86.8564 7.64697ZM91.9375 15.1074C91.1497 15.1074 90.5088 14.8496 90.0146 14.334C89.5205 13.8148 89.2734 13.1219 89.2734 12.2554V12.0728C89.2734 11.4963 89.3826 10.9824 89.6011 10.5312C89.8231 10.0765 90.131 9.72201 90.5249 9.46777C90.9224 9.20996 91.3521 9.08105 91.814 9.08105C92.5695 9.08105 93.1567 9.32992 93.5757 9.82764C93.9946 10.3254 94.2041 11.0379 94.2041 11.9653V12.3789H90.2671C90.2814 12.9518 90.4479 13.4155 90.7666 13.77C91.0889 14.1209 91.4971 14.2964 91.9912 14.2964C92.3421 14.2964 92.6393 14.2248 92.8828 14.0815C93.1263 13.9383 93.3394 13.7485 93.522 13.5122L94.1289 13.9849C93.6419 14.7332 92.9115 15.1074 91.9375 15.1074ZM91.814 9.89746C91.4129 9.89746 91.0763 10.0443 90.8042 10.3379C90.5321 10.6279 90.3638 11.0361 90.2993 11.5625H93.2104V11.4873C93.1818 10.9824 93.0457 10.5921 92.8022 10.3164C92.5588 10.0371 92.2293 9.89746 91.814 9.89746ZM96.707 7.78125V9.18848H97.792V9.95654H96.707V13.5605C96.707 13.7933 96.7554 13.9688 96.8521 14.0869C96.9487 14.2015 97.1134 14.2588 97.3462 14.2588C97.4608 14.2588 97.6183 14.2373 97.8188 14.1943V15C97.5575 15.0716 97.3032 15.1074 97.0562 15.1074C96.6121 15.1074 96.2773 14.9731 96.0518 14.7046C95.8262 14.436 95.7134 14.0547 95.7134 13.5605V9.95654H94.6553V9.18848H95.7134V7.78125H96.707ZM99.8975 9.18848L99.9297 9.91895C100.374 9.36035 100.954 9.08105 101.67 9.08105C102.898 9.08105 103.518 9.77393 103.528 11.1597V15H102.535V11.1543C102.531 10.7354 102.434 10.4256 102.245 10.2251C102.058 10.0246 101.767 9.92432 101.369 9.92432C101.047 9.92432 100.764 10.0103 100.521 10.1821C100.277 10.354 100.087 10.5796 99.9512 10.8589V15H98.9575V9.18848H99.8975ZM108.615 15C108.557 14.8854 108.511 14.6813 108.475 14.3877C108.013 14.8675 107.462 15.1074 106.821 15.1074C106.248 15.1074 105.777 14.9463 105.408 14.624C105.043 14.2982 104.86 13.8864 104.86 13.3887C104.86 12.7835 105.09 12.3145 105.548 11.9814C106.01 11.6449 106.658 11.4766 107.492 11.4766H108.459V11.02C108.459 10.6727 108.355 10.397 108.147 10.1929C107.94 9.98519 107.634 9.88135 107.229 9.88135C106.875 9.88135 106.577 9.97087 106.337 10.1499C106.097 10.3289 105.978 10.5456 105.978 10.7998H104.979C104.979 10.5098 105.081 10.2305 105.285 9.96191C105.492 9.68978 105.772 9.47493 106.123 9.31738C106.477 9.15983 106.866 9.08105 107.288 9.08105C107.958 9.08105 108.482 9.24935 108.862 9.58594C109.241 9.91895 109.438 10.3791 109.453 10.9663V13.6411C109.453 14.1746 109.521 14.599 109.657 14.9141V15H108.615ZM106.966 14.2427C107.277 14.2427 107.573 14.1621 107.852 14.001C108.131 13.8398 108.334 13.6304 108.459 13.3726V12.1802H107.68C106.463 12.1802 105.854 12.5365 105.854 13.249C105.854 13.5605 105.958 13.804 106.166 13.9795C106.373 14.1549 106.64 14.2427 106.966 14.2427ZM111.945 9.18848L111.972 9.83301C112.398 9.33171 112.972 9.08105 113.696 9.08105C114.509 9.08105 115.062 9.39258 115.355 10.0156C115.549 9.73633 115.799 9.51074 116.107 9.33887C116.419 9.16699 116.786 9.08105 117.208 9.08105C118.483 9.08105 119.131 9.75602 119.153 11.106V15H118.159V11.165C118.159 10.7497 118.064 10.4399 117.875 10.2358C117.685 10.0282 117.366 9.92432 116.918 9.92432C116.55 9.92432 116.243 10.0353 116 10.2573C115.757 10.4757 115.615 10.7712 115.576 11.1436V15H114.577V11.1919C114.577 10.3468 114.163 9.92432 113.336 9.92432C112.684 9.92432 112.238 10.2018 111.999 10.7568V15H111.005V9.18848H111.945Z"
			fill="#010101" fill-opacity="0.3" />
		<path
			d="M81.9736 12.2974L83.9609 6.17969H85.4541L82.6396 14H81.3237L78.52 6.17969H80.0078L81.9736 12.2974ZM87.6025 14H86.2974V8.18848H87.6025V14ZM86.2168 6.6792C86.2168 6.47868 86.2795 6.31217 86.4048 6.17969C86.5337 6.0472 86.7163 5.98096 86.9526 5.98096C87.189 5.98096 87.3716 6.0472 87.5005 6.17969C87.6294 6.31217 87.6938 6.47868 87.6938 6.6792C87.6938 6.87614 87.6294 7.04085 87.5005 7.17334C87.3716 7.30225 87.189 7.3667 86.9526 7.3667C86.7163 7.3667 86.5337 7.30225 86.4048 7.17334C86.2795 7.04085 86.2168 6.87614 86.2168 6.6792ZM91.5879 14.1074C90.7607 14.1074 90.0894 13.8478 89.5737 13.3286C89.0617 12.8058 88.8057 12.1112 88.8057 11.2446V11.0835C88.8057 10.5034 88.9167 9.986 89.1387 9.53125C89.3643 9.07292 89.6794 8.71663 90.084 8.4624C90.4886 8.20817 90.9398 8.08105 91.4375 8.08105C92.2288 8.08105 92.8394 8.3335 93.269 8.83838C93.7023 9.34326 93.9189 10.0576 93.9189 10.9814V11.5078H90.1216C90.161 11.9876 90.3203 12.3672 90.5996 12.6465C90.8825 12.9258 91.237 13.0654 91.6631 13.0654C92.2611 13.0654 92.748 12.8237 93.124 12.3403L93.8276 13.0117C93.5949 13.359 93.2834 13.6294 92.8931 13.8228C92.5063 14.0125 92.0713 14.1074 91.5879 14.1074ZM91.4321 9.12842C91.0741 9.12842 90.784 9.25374 90.562 9.50439C90.3436 9.75505 90.2039 10.1042 90.1431 10.5518H92.6299V10.4551C92.6012 10.0182 92.4849 9.6888 92.2808 9.4668C92.0767 9.24121 91.7938 9.12842 91.4321 9.12842ZM96.5723 6.77588V8.18848H97.5981V9.15527H96.5723V12.3994C96.5723 12.6214 96.6152 12.7826 96.7012 12.8828C96.7907 12.9795 96.9482 13.0278 97.1738 13.0278C97.3242 13.0278 97.4764 13.0099 97.6304 12.9741V13.9839C97.3332 14.0662 97.0467 14.1074 96.771 14.1074C95.7684 14.1074 95.2671 13.5542 95.2671 12.4478V9.15527H94.311V8.18848H95.2671V6.77588H96.5723ZM99.811 8.18848L99.8486 8.85986C100.278 8.34066 100.842 8.08105 101.541 8.08105C102.751 8.08105 103.367 8.77393 103.388 10.1597V14H102.083V10.2349C102.083 9.86605 102.002 9.59391 101.841 9.41846C101.684 9.23942 101.424 9.1499 101.062 9.1499C100.536 9.1499 100.144 9.38802 99.8862 9.86426V14H98.5811V8.18848H99.811ZM108.195 14C108.138 13.889 108.088 13.7082 108.045 13.4575C107.63 13.8908 107.121 14.1074 106.52 14.1074C105.936 14.1074 105.46 13.9409 105.091 13.6079C104.722 13.2749 104.538 12.8631 104.538 12.3726C104.538 11.7531 104.767 11.2786 105.225 10.9492C105.687 10.6162 106.346 10.4497 107.202 10.4497H108.002V10.0684C108.002 9.76758 107.918 9.52767 107.75 9.34863C107.581 9.16602 107.325 9.07471 106.981 9.07471C106.684 9.07471 106.441 9.1499 106.251 9.30029C106.061 9.4471 105.966 9.63509 105.966 9.86426H104.661C104.661 9.54557 104.767 9.24837 104.978 8.97266C105.189 8.69336 105.476 8.47493 105.837 8.31738C106.203 8.15983 106.609 8.08105 107.057 8.08105C107.737 8.08105 108.279 8.25293 108.684 8.59668C109.089 8.93685 109.296 9.41667 109.307 10.0361V12.6572C109.307 13.18 109.381 13.5972 109.527 13.9087V14H108.195ZM106.761 13.0601C107.019 13.0601 107.261 12.9974 107.486 12.8721C107.715 12.7467 107.887 12.5785 108.002 12.3672V11.2715H107.298C106.815 11.2715 106.451 11.3556 106.208 11.5239C105.965 11.6922 105.843 11.9303 105.843 12.2383C105.843 12.4889 105.925 12.6895 106.09 12.8398C106.258 12.9867 106.482 13.0601 106.761 13.0601ZM111.901 8.18848L111.939 8.79541C112.347 8.31917 112.906 8.08105 113.615 8.08105C114.392 8.08105 114.924 8.37826 115.21 8.97266C115.632 8.37826 116.227 8.08105 116.993 8.08105C117.634 8.08105 118.11 8.2583 118.422 8.61279C118.737 8.96729 118.898 9.49007 118.905 10.1812V14H117.6V10.2188C117.6 9.84993 117.52 9.57959 117.358 9.40771C117.197 9.23584 116.931 9.1499 116.558 9.1499C116.261 9.1499 116.017 9.23047 115.828 9.3916C115.641 9.54915 115.511 9.75684 115.436 10.0146L115.441 14H114.136V10.1758C114.118 9.49186 113.769 9.1499 113.088 9.1499C112.566 9.1499 112.195 9.36296 111.977 9.78906V14H110.671V8.18848H111.901Z"
			fill="white" />
		<path
			d="M74.1066 9.81703L71.5953 9.45204L70.4726 7.17607C70.4419 7.11375 70.3915 7.06331 70.3292 7.03264C70.1729 6.95549 69.983 7.01979 69.9048 7.17607L68.7822 9.45204L66.2708 9.81703C66.2016 9.82692 66.1383 9.85956 66.0898 9.90902C66.0312 9.96924 65.9989 10.0503 66 10.1343C66.0011 10.2183 66.0356 10.2984 66.0957 10.3571L67.9128 12.1286L67.4835 14.6301C67.4734 14.6883 67.4798 14.7481 67.5021 14.8029C67.5243 14.8576 67.5614 14.905 67.6092 14.9397C67.6569 14.9744 67.7135 14.995 67.7724 14.9992C67.8313 15.0034 67.8902 14.991 67.9424 14.9634L70.1887 13.7824L72.435 14.9634C72.4964 14.9961 72.5676 15.007 72.6358 14.9951C72.8079 14.9654 72.9237 14.8022 72.894 14.6301L72.4647 12.1286L74.2817 10.3571C74.3312 10.3086 74.3638 10.2453 74.3737 10.1761C74.4004 10.003 74.2797 9.84275 74.1066 9.81703V9.81703Z"
			fill="#010101" fill-opacity="0.3" />
		<path
			d="M74.1066 8.81703L71.5953 8.45204L70.4726 6.17607C70.4419 6.11375 70.3915 6.06331 70.3292 6.03264C70.1729 5.95549 69.983 6.01979 69.9048 6.17607L68.7822 8.45204L66.2708 8.81703C66.2016 8.82692 66.1383 8.85956 66.0898 8.90902C66.0312 8.96924 65.9989 9.05026 66 9.13428C66.0011 9.2183 66.0356 9.29844 66.0957 9.35709L67.9128 11.1286L67.4835 13.6301C67.4734 13.6883 67.4798 13.7481 67.5021 13.8029C67.5243 13.8576 67.5614 13.905 67.6092 13.9397C67.6569 13.9744 67.7135 13.995 67.7724 13.9992C67.8313 14.0034 67.8902 13.991 67.9424 13.9634L70.1887 12.7824L72.435 13.9634C72.4964 13.9961 72.5676 14.007 72.6358 13.9951C72.8079 13.9654 72.9237 13.8022 72.894 13.6301L72.4647 11.1286L74.2817 9.35709C74.3312 9.30862 74.3638 9.24532 74.3737 9.17608C74.4004 9.00298 74.2797 8.84275 74.1066 8.81703V8.81703Z"
			fill="#FFD500" />
		<path d="M0 0L129 0V20H0V0Z" fill="url(#paint0_linear)" />
		<path
			d="M9.81163 9.18848L9.83849 9.83301C10.2646 9.33171 10.8393 9.08105 11.5626 9.08105C12.3754 9.08105 12.9287 9.39258 13.2223 10.0156C13.4156 9.73633 13.6663 9.51074 13.9742 9.33887C14.2858 9.16699 14.6528 9.08105 15.0753 9.08105C16.35 9.08105 16.9982 9.75602 17.0196 11.106V15H16.026V11.165C16.026 10.7497 15.9311 10.4399 15.7413 10.2358C15.5515 10.0282 15.2329 9.92432 14.7853 9.92432C14.4164 9.92432 14.1103 10.0353 13.8668 10.2573C13.6233 10.4757 13.4819 10.7712 13.4425 11.1436V15H12.4435V11.1919C12.4435 10.3468 12.0299 9.92432 11.2027 9.92432C10.5511 9.92432 10.1053 10.2018 9.86534 10.7568V15H8.87169V9.18848H9.81163ZM22.1114 15C22.0541 14.8854 22.0076 14.6813 21.9718 14.3877C21.5099 14.8675 20.9584 15.1074 20.3175 15.1074C19.7446 15.1074 19.2737 14.9463 18.9049 14.624C18.5397 14.2982 18.357 13.8864 18.357 13.3887C18.357 12.7835 18.5862 12.3145 19.0445 11.9814C19.5065 11.6449 20.1546 11.4766 20.9889 11.4766H21.9557V11.02C21.9557 10.6727 21.8518 10.397 21.6441 10.1929C21.4365 9.98519 21.1303 9.88135 20.7257 9.88135C20.3712 9.88135 20.074 9.97087 19.8341 10.1499C19.5942 10.3289 19.4742 10.5456 19.4742 10.7998H18.4752C18.4752 10.5098 18.5773 10.2305 18.7814 9.96191C18.989 9.68978 19.2683 9.47493 19.6192 9.31738C19.9737 9.15983 20.3622 9.08105 20.7848 9.08105C21.4544 9.08105 21.9789 9.24935 22.3585 9.58594C22.7381 9.91895 22.935 10.3791 22.9493 10.9663V13.6411C22.9493 14.1746 23.0174 14.599 23.1534 14.9141V15H22.1114ZM20.4625 14.2427C20.774 14.2427 21.0694 14.1621 21.3487 14.001C21.628 13.8398 21.8303 13.6304 21.9557 13.3726V12.1802H21.1769C19.9594 12.1802 19.3507 12.5365 19.3507 13.249C19.3507 13.5605 19.4545 13.804 19.6622 13.9795C19.8699 14.1549 20.1367 14.2427 20.4625 14.2427ZM24.2652 12.0459C24.2652 11.1543 24.4765 10.4382 24.899 9.89746C25.3216 9.35319 25.8748 9.08105 26.5587 9.08105C27.239 9.08105 27.7779 9.3138 28.1754 9.7793V6.75H29.1691V15H28.256L28.2076 14.377C27.8102 14.8639 27.2569 15.1074 26.548 15.1074C25.8748 15.1074 25.3251 14.8317 24.899 14.2803C24.4765 13.7288 24.2652 13.0091 24.2652 12.1211V12.0459ZM25.2589 12.1587C25.2589 12.8175 25.395 13.3332 25.6671 13.7056C25.9392 14.078 26.3152 14.2642 26.795 14.2642C27.4252 14.2642 27.8854 13.9813 28.1754 13.4155V10.7461C27.8782 10.1982 27.4217 9.92432 26.8058 9.92432C26.3188 9.92432 25.9392 10.1123 25.6671 10.4883C25.395 10.8643 25.2589 11.4211 25.2589 12.1587ZM33.1275 15.1074C32.3398 15.1074 31.6988 14.8496 31.2047 14.334C30.7106 13.8148 30.4635 13.1219 30.4635 12.2554V12.0728C30.4635 11.4963 30.5727 10.9824 30.7911 10.5312C31.0131 10.0765 31.3211 9.72201 31.715 9.46777C32.1124 9.20996 32.5421 9.08105 33.004 9.08105C33.7595 9.08105 34.3468 9.32992 34.7657 9.82764C35.1847 10.3254 35.3941 11.0379 35.3941 11.9653V12.3789H31.4571C31.4715 12.9518 31.638 13.4155 31.9566 13.77C32.2789 14.1209 32.6871 14.2964 33.1813 14.2964C33.5322 14.2964 33.8294 14.2248 34.0729 14.0815C34.3164 13.9383 34.5294 13.7485 34.712 13.5122L35.319 13.9849C34.832 14.7332 34.1015 15.1074 33.1275 15.1074ZM33.004 9.89746C32.603 9.89746 32.2664 10.0443 31.9942 10.3379C31.7221 10.6279 31.5538 11.0361 31.4894 11.5625H34.4005V11.4873C34.3719 10.9824 34.2358 10.5921 33.9923 10.3164C33.7488 10.0371 33.4194 9.89746 33.004 9.89746ZM40.357 15H39.3634V9.18848H40.357V15ZM39.2828 7.64697C39.2828 7.48584 39.3312 7.34977 39.4278 7.23877C39.5281 7.12777 39.6749 7.07227 39.8683 7.07227C40.0616 7.07227 40.2084 7.12777 40.3087 7.23877C40.409 7.34977 40.4591 7.48584 40.4591 7.64697C40.4591 7.80811 40.409 7.94238 40.3087 8.0498C40.2084 8.15723 40.0616 8.21094 39.8683 8.21094C39.6749 8.21094 39.5281 8.15723 39.4278 8.0498C39.3312 7.94238 39.2828 7.80811 39.2828 7.64697ZM42.8922 9.18848L42.9244 9.91895C43.3684 9.36035 43.9485 9.08105 44.6647 9.08105C45.8928 9.08105 46.5123 9.77393 46.5231 11.1597V15H45.5294V11.1543C45.5258 10.7354 45.4291 10.4256 45.2394 10.2251C45.0532 10.0246 44.7613 9.92432 44.3639 9.92432C44.0416 9.92432 43.7587 10.0103 43.5152 10.1821C43.2718 10.354 43.082 10.5796 42.9459 10.8589V15H41.9523V9.18848H42.8922Z"
			fill="#010101" fill-opacity="0.3" />
		<path
			d="M9.11426 8.18848L9.14111 8.83301C9.56722 8.33171 10.1419 8.08105 10.8652 8.08105C11.6781 8.08105 12.2313 8.39258 12.5249 9.01562C12.7183 8.73633 12.9689 8.51074 13.2769 8.33887C13.5884 8.16699 13.9554 8.08105 14.3779 8.08105C15.6527 8.08105 16.3008 8.75602 16.3223 10.106V14H15.3286V10.165C15.3286 9.74967 15.2337 9.43994 15.0439 9.23584C14.8542 9.02816 14.5355 8.92432 14.0879 8.92432C13.7191 8.92432 13.4129 9.03532 13.1694 9.25732C12.9259 9.47575 12.7845 9.77116 12.7451 10.1436V14H11.7461V10.1919C11.7461 9.34684 11.3325 8.92432 10.5054 8.92432C9.85368 8.92432 9.40788 9.20182 9.16797 9.75684V14H8.17432V8.18848H9.11426ZM21.4141 14C21.3568 13.8854 21.3102 13.6813 21.2744 13.3877C20.8125 13.8675 20.2611 14.1074 19.6201 14.1074C19.0472 14.1074 18.5763 13.9463 18.2075 13.624C17.8423 13.2982 17.6597 12.8864 17.6597 12.3887C17.6597 11.7835 17.8888 11.3145 18.3472 10.9814C18.8091 10.6449 19.4572 10.4766 20.2915 10.4766H21.2583V10.02C21.2583 9.67269 21.1545 9.39697 20.9468 9.19287C20.7391 8.98519 20.4329 8.88135 20.0283 8.88135C19.6738 8.88135 19.3766 8.97087 19.1367 9.1499C18.8968 9.32894 18.7769 9.54557 18.7769 9.7998H17.7778C17.7778 9.50977 17.8799 9.23047 18.084 8.96191C18.2917 8.68978 18.571 8.47493 18.9219 8.31738C19.2764 8.15983 19.6649 8.08105 20.0874 8.08105C20.757 8.08105 21.2816 8.24935 21.6611 8.58594C22.0407 8.91895 22.2376 9.37907 22.252 9.96631V12.6411C22.252 13.1746 22.32 13.599 22.4561 13.9141V14H21.4141ZM19.7651 13.2427C20.0767 13.2427 20.3721 13.1621 20.6514 13.001C20.9307 12.8398 21.133 12.6304 21.2583 12.3726V11.1802H20.4795C19.262 11.1802 18.6533 11.5365 18.6533 12.249C18.6533 12.5605 18.7572 12.804 18.9648 12.9795C19.1725 13.1549 19.4393 13.2427 19.7651 13.2427ZM23.5679 11.0459C23.5679 10.1543 23.7791 9.43815 24.2017 8.89746C24.6242 8.35319 25.1774 8.08105 25.8613 8.08105C26.5417 8.08105 27.0806 8.3138 27.478 8.7793V5.75H28.4717V14H27.5586L27.5103 13.377C27.1128 13.8639 26.5596 14.1074 25.8506 14.1074C25.1774 14.1074 24.6278 13.8317 24.2017 13.2803C23.7791 12.7288 23.5679 12.0091 23.5679 11.1211V11.0459ZM24.5615 11.1587C24.5615 11.8175 24.6976 12.3332 24.9697 12.7056C25.2419 13.078 25.6178 13.2642 26.0977 13.2642C26.7279 13.2642 27.188 12.9813 27.478 12.4155V9.74609C27.1808 9.19824 26.7243 8.92432 26.1084 8.92432C25.6214 8.92432 25.2419 9.1123 24.9697 9.48828C24.6976 9.86426 24.5615 10.4211 24.5615 11.1587ZM32.4302 14.1074C31.6424 14.1074 31.0015 13.8496 30.5073 13.334C30.0132 12.8148 29.7661 12.1219 29.7661 11.2554V11.0728C29.7661 10.4963 29.8753 9.98242 30.0938 9.53125C30.3158 9.0765 30.6237 8.72201 31.0176 8.46777C31.415 8.20996 31.8447 8.08105 32.3066 8.08105C33.0622 8.08105 33.6494 8.32992 34.0684 8.82764C34.4873 9.32536 34.6968 10.0379 34.6968 10.9653V11.3789H30.7598C30.7741 11.9518 30.9406 12.4155 31.2593 12.77C31.5815 13.1209 31.9897 13.2964 32.4839 13.2964C32.8348 13.2964 33.132 13.2248 33.3755 13.0815C33.619 12.9383 33.832 12.7485 34.0146 12.5122L34.6216 12.9849C34.1346 13.7332 33.4041 14.1074 32.4302 14.1074ZM32.3066 8.89746C31.9056 8.89746 31.569 9.04427 31.2969 9.33789C31.0247 9.62793 30.8564 10.0361 30.792 10.5625H33.7031V10.4873C33.6745 9.98242 33.5384 9.59212 33.2949 9.31641C33.0514 9.03711 32.722 8.89746 32.3066 8.89746ZM39.6597 14H38.666V8.18848H39.6597V14ZM38.5854 6.64697C38.5854 6.48584 38.6338 6.34977 38.7305 6.23877C38.8307 6.12777 38.9775 6.07227 39.1709 6.07227C39.3643 6.07227 39.5111 6.12777 39.6113 6.23877C39.7116 6.34977 39.7617 6.48584 39.7617 6.64697C39.7617 6.80811 39.7116 6.94238 39.6113 7.0498C39.5111 7.15723 39.3643 7.21094 39.1709 7.21094C38.9775 7.21094 38.8307 7.15723 38.7305 7.0498C38.6338 6.94238 38.5854 6.80811 38.5854 6.64697ZM42.1948 8.18848L42.2271 8.91895C42.6711 8.36035 43.2511 8.08105 43.9673 8.08105C45.1955 8.08105 45.8149 8.77393 45.8257 10.1597V14H44.832V10.1543C44.8285 9.73535 44.7318 9.42562 44.542 9.2251C44.3558 9.02458 44.064 8.92432 43.6665 8.92432C43.3442 8.92432 43.0614 9.01025 42.8179 9.18213C42.5744 9.354 42.3846 9.57959 42.2485 9.85889V14H41.2549V8.18848H42.1948Z"
			fill="white" />
	</g>
	<defs>
		<linearGradient id="paint0_linear" x1="50" y1="6.03141e-08" x2="50" y2="20" gradientUnits="userSpaceOnUse">
			<stop stop-color="#BBBBBB" stop-opacity="0.1" />
			<stop offset="1" stop-opacity="0.1" />
		</linearGradient>
	</defs>
</svg>