<?xml version="1.0" encoding="utf-8"?>
<svg viewBox="7.062 8.968 159.799 40.199" width="159.799" height="40.199" xmlns="http://www.w3.org/2000/svg">
  <g transform="matrix(0.148261, 0, 0, 0.133854, -61.300325, -104.786888)" style="" fill="currentColor">
    <g>
      <path d="M844.84,918.3h17.86v182.06h-17.86V918.3z"/>
      <path d="M1025.58,918.3v15.5h-58.32v166.56H949.4V933.8h-58.32v-15.5H1025.58z"/>
      <path d="M1258.34,1009.2c0,15.59-2.45,29.16-7.35,40.72c-4.9,11.56-11.78,21.19-20.62,28.9c-8.85,7.71-19.4,13.49-31.66,17.34 c-12.26,3.85-25.75,5.78-40.46,5.78c-7.36,0-15.07-0.4-23.12-1.18c-8.06-0.79-15.15-1.97-21.28-3.55V921.71 c6.13-1.75,13.22-3.02,21.28-3.81c8.05-0.79,15.76-1.18,23.12-1.18c14.71,0,28.2,1.93,40.46,5.78 c12.26,3.85,22.81,9.63,31.66,17.34c8.84,7.71,15.72,17.34,20.62,28.9C1255.89,980.3,1258.34,993.79,1258.34,1009.2z M1131.72,1084.59c1.05,0.18,3.72,0.53,8.01,1.05c4.29,0.53,11.17,0.79,20.62,0.79c13.14,0,24.61-1.79,34.41-5.38 c9.81-3.59,18.04-8.71,24.7-15.37c6.66-6.65,11.65-14.75,14.98-24.3c3.33-9.54,4.99-20.27,4.99-32.18 c0-11.91-1.66-22.59-4.99-32.05c-3.33-9.46-8.32-17.51-14.98-24.17c-6.66-6.65-14.89-11.78-24.7-15.37 c-9.81-3.59-21.28-5.38-34.41-5.38c-9.46,0-16.33,0.26-20.62,0.79c-4.29,0.52-6.96,0.88-8.01,1.05V1084.59z"/>
      <path d="M1338.47,961.38c8.93,0,16.51,1.27,22.72,3.81c6.21,2.54,11.25,6.04,15.11,10.51c3.85,4.47,6.65,9.76,8.41,15.89 c1.75,6.13,2.63,12.79,2.63,19.97v85.64c-1.75,0.52-4.29,1.1-7.62,1.71c-3.33,0.61-7.18,1.27-11.56,1.97 c-4.38,0.7-9.24,1.27-14.58,1.71c-5.35,0.43-10.82,0.65-16.42,0.65c-7.18,0-13.79-0.79-19.84-2.36 c-6.04-1.58-11.3-4.07-15.76-7.49c-4.47-3.42-7.97-7.79-10.51-13.14c-2.54-5.34-3.81-11.86-3.81-19.57c0-7.36,1.4-13.66,4.2-18.92 c2.8-5.25,6.74-9.59,11.82-13c5.08-3.42,11.12-5.91,18.13-7.49c7-1.58,14.62-2.36,22.86-2.36c2.45,0,5.03,0.13,7.75,0.39 c2.71,0.26,5.34,0.62,7.88,1.05c2.54,0.44,4.73,0.88,6.57,1.31c1.84,0.44,3.11,0.83,3.81,1.18v-8.41c0-4.73-0.35-9.33-1.05-13.79 c-0.7-4.47-2.23-8.49-4.6-12.08c-2.36-3.59-5.69-6.48-9.98-8.67c-4.3-2.19-9.94-3.28-16.94-3.28c-9.99,0-17.43,0.7-22.33,2.1 c-4.91,1.4-8.5,2.54-10.77,3.42l-2.36-14.98c2.98-1.4,7.57-2.71,13.79-3.94C1322.22,962,1329.71,961.38,1338.47,961.38z M1340.04,1088.01c6.66,0,12.48-0.22,17.47-0.66c4.99-0.43,9.24-1.01,12.74-1.71v-47.81c-1.93-0.88-4.99-1.79-9.19-2.76 c-4.21-0.96-9.98-1.44-17.34-1.44c-4.2,0-8.58,0.31-13.14,0.92c-4.56,0.62-8.76,1.93-12.61,3.94c-3.85,2.02-7.01,4.77-9.46,8.28 c-2.45,3.51-3.68,8.14-3.68,13.92c0,5.08,0.83,9.37,2.5,12.87c1.66,3.51,4.03,6.3,7.09,8.41c3.06,2.1,6.74,3.64,11.03,4.6 C1329.75,1087.53,1334.61,1088.01,1340.04,1088.01z"/>
      <path d="M1538.91,1096.15c-5.08,1.75-11.56,3.42-19.44,4.99c-7.88,1.58-17.87,2.36-29.95,2.36c-9.98,0-19.05-1.62-27.19-4.86 c-8.14-3.24-15.15-7.92-21.02-14.06c-5.87-6.13-10.42-13.57-13.66-22.33c-3.24-8.75-4.86-18.65-4.86-29.69 c0-10.33,1.35-19.84,4.07-28.5c2.71-8.67,6.7-16.16,11.95-22.46c5.25-6.3,11.69-11.2,19.31-14.71c7.62-3.5,16.33-5.25,26.14-5.25 c8.93,0,16.68,1.27,23.25,3.81c6.57,2.54,11.34,4.95,14.32,7.22v-73.03l17.08-3.15V1096.15z M1521.84,989.23 c-1.57-1.22-3.55-2.54-5.91-3.94c-2.36-1.4-5.12-2.71-8.28-3.94c-3.15-1.22-6.57-2.23-10.25-3.02c-3.68-0.79-7.53-1.18-11.56-1.18 c-8.41,0-15.46,1.49-21.15,4.47c-5.69,2.98-10.29,6.96-13.79,11.95c-3.51,4.99-6.04,10.86-7.62,17.6 c-1.58,6.75-2.36,13.88-2.36,21.41c0,17.86,4.47,31.57,13.4,41.11c8.93,9.55,20.75,14.32,35.47,14.32 c8.41,0,15.19-0.39,20.36-1.18c5.17-0.79,9.07-1.62,11.69-2.5V989.23z"/>
    </g>
    <g>
      <g>
        <g>
          <linearGradient id="SVGID_1_" gradientUnits="userSpaceOnUse" x1="421.0721" y1="1111.6311" x2="719.0798" y2="852.798">
            <stop offset="0" style="stop-color:#50DCF0"/>
            <stop offset="1" style="stop-color:#0891B2"/>
          </linearGradient>
          <path class="st0" d="M721.39,969.44l-64.62,111.9c-0.92,1.59-2.61,2.56-4.43,2.56H523.16c-1.85,0-3.54-0.97-4.46-2.56 c-0.9-1.59-0.9-3.54,0-5.13l63.13-109.34l-16.89-29.24h11.84l15.4,26.68c0.92,1.59,0.92,3.54,0,5.13l-60.16,104.22H649.4 l61.64-106.75v-0.05L649.4,860.09H532.03l26.99,46.78h-11.84l-28.48-49.34c-0.9-1.59-0.9-3.54,0-5.13 c0.92-1.59,2.61-2.56,4.46-2.56h129.18c1.82,0,3.51,0.97,4.43,2.56l64.62,111.9C722.32,965.9,722.32,967.85,721.39,969.44z" style="fill: url(#SVGID_1_);"/>
        </g>
        <g>
          <linearGradient id="SVGID_2_" gradientUnits="userSpaceOnUse" x1="447.5832" y1="1142.1547" x2="745.5909" y2="883.3217">
            <stop offset="0" style="stop-color:#50DCF0"/>
            <stop offset="1" style="stop-color:#0891B2"/>
          </linearGradient>
          <polygon class="st1" points="711.04,966.85 711.04,966.9 649.4,1073.65 711.01,966.87 649.4,860.09 &#9;&#9;&#9;&#9;" style="fill: url(#SVGID_2_);"/>
        </g>
      </g>
      <g>
        <g>
          <linearGradient id="SVGID_3_" gradientUnits="userSpaceOnUse" x1="457.1692" y1="1153.1917" x2="755.1769" y2="894.3585">
            <stop offset="0" style="stop-color:#50DCF0"/>
            <stop offset="1" style="stop-color:#0891B2"/>
          </linearGradient>
          <path class="st2" d="M663.54,1142.47c0.92,1.59,0.92,3.54,0,5.13c-0.9,1.59-2.59,2.56-4.43,2.56H530.52 c-1.85,0-3.54-0.97-4.43-2.56l-64.31-111.39c-0.92-1.59-0.92-3.54,0-5.13l64.31-111.39c0.9-1.59,2.59-2.56,4.43-2.56h128.59 c1.85,0,3.54,0.97,4.43,2.56c0.92,1.59,0.92,3.54,0,5.13l-62.82,108.83l17.17,29.76h-11.82l-15.71-27.19 c-0.92-1.59-0.92-3.54,0-5.13l59.87-103.7H533.47l-61.33,106.27l61.33,106.27h116.77l-26.43-45.75h11.84L663.54,1142.47z" style="fill: url(#SVGID_3_);"/>
        </g>
      </g>
    </g>
  </g>
</svg>
