<?xml version="1.0" standalone="no"?>
<!DOCTYPE svg PUBLIC "-//W3C//DTD SVG 20010904//EN"
 "http://www.w3.org/TR/2001/REC-SVG-20010904/DTD/svg10.dtd">
<svg version="1.0" xmlns="http://www.w3.org/2000/svg"
 width="500.000000pt" height="500.000000pt" viewBox="0 0 500.000000 500.000000"
 preserveAspectRatio="xMidYMid meet">
<metadata>
Created by potrace 1.14, written by Peter Selinger 2001-2017
</metadata>
<g transform="translate(0.000000,500.000000) scale(0.100000,-0.100000)"
fill="#000000" stroke="none">
<path d="M1173 4955 c-29 -13 -39 -27 -48 -74 -2 -14 45 -96 142 -248 80 -126
152 -239 160 -253 7 -14 60 -97 117 -185 l102 -160 107 -3 c59 -1 107 0 107 3
0 2 -26 45 -57 95 -32 49 -76 118 -98 152 -22 35 -100 158 -173 273 -74 116
-138 217 -142 226 -8 14 86 16 1049 16 l1058 0 189 -296 c103 -163 211 -332
239 -376 94 -146 300 -469 310 -487 25 -42 115 -184 122 -193 10 -12 247 -386
251 -396 2 -5 -17 -40 -42 -79 -25 -39 -46 -73 -46 -76 0 -3 -5 -10 -11 -17
-9 -10 -184 -283 -238 -372 -10 -16 -68 -108 -130 -204 -61 -95 -111 -175
-111 -178 0 -2 -5 -9 -11 -16 -5 -7 -125 -193 -266 -414 l-256 -403 -1059 0
c-844 0 -1058 3 -1052 12 4 7 44 71 88 141 45 70 86 135 91 145 6 9 35 55 65
102 30 46 60 92 65 102 8 15 98 156 251 393 394 613 528 833 527 862 -1 22
-35 83 -116 210 -63 98 -127 199 -143 224 l-29 45 -107 0 -107 0 22 -36 c12
-19 25 -39 30 -45 5 -5 64 -98 131 -205 l123 -195 -35 -55 c-19 -30 -94 -147
-165 -260 -72 -113 -149 -234 -172 -270 -23 -36 -102 -159 -175 -275 -73 -115
-147 -232 -165 -260 -18 -27 -92 -144 -165 -260 -73 -115 -150 -236 -171 -267
-22 -32 -39 -60 -39 -62 0 -2 -16 -28 -35 -57 -20 -31 -33 -61 -30 -73 2 -12
4 -27 4 -34 1 -7 15 -21 31 -31 29 -17 85 -18 1223 -18 1038 0 1195 2 1218 15
14 8 41 40 59 71 18 31 36 58 40 61 4 3 15 21 26 40 10 19 23 39 27 45 5 5
109 170 233 365 123 195 229 362 234 370 6 8 34 52 63 98 29 45 115 181 192
302 77 122 147 232 155 245 8 13 52 83 98 155 50 79 82 140 82 156 0 23 -257
438 -695 1119 -78 122 -268 422 -285 450 -29 48 -191 300 -204 317 -7 10 -24
22 -38 27 -16 6 -470 10 -1204 9 -960 0 -1185 -2 -1211 -13z"/>
<path d="M1304 3850 c-12 -5 -116 -158 -255 -377 -128 -202 -349 -550 -490
-773 -142 -223 -262 -410 -268 -417 -6 -7 -11 -14 -11 -17 0 -3 -30 -52 -67
-108 -133 -205 -133 -208 -96 -269 10 -16 86 -135 168 -264 83 -129 155 -243
160 -253 6 -9 20 -32 33 -49 12 -17 22 -36 22 -41 0 -6 3 -12 8 -14 4 -2 34
-46 66 -98 73 -117 273 -431 332 -522 24 -37 44 -72 44 -76 0 -5 9 -17 20 -27
11 -10 20 -22 20 -27 0 -5 5 -14 10 -21 6 -7 40 -59 76 -117 36 -58 76 -121
89 -140 12 -19 43 -67 68 -105 25 -39 53 -77 63 -85 15 -13 181 -15 1211 -15
1149 0 1195 0 1223 18 28 18 36 37 31 82 -1 11 -25 56 -53 100 -115 178 -161
250 -303 475 -82 129 -150 237 -152 239 -4 5 -206 2 -211 -4 -3 -3 67 -115 79
-125 3 -3 12 -16 19 -30 12 -23 174 -277 297 -467 29 -46 53 -87 53 -93 0 -5
5 -10 10 -10 6 0 10 -4 10 -8 0 -5 -474 -9 -1053 -9 l-1054 0 -76 119 c-43 65
-77 123 -77 128 0 6 -4 10 -10 10 -5 0 -10 5 -10 10 0 6 -5 16 -11 23 -8 10
-207 322 -821 1288 l-105 167 248 388 c137 214 254 398 259 409 6 11 48 79 94
150 47 72 133 207 192 300 116 183 156 247 254 398 l63 97 1054 0 c1001 0
1053 -1 1043 -17 -10 -18 -370 -584 -390 -613 -47 -70 -142 -220 -153 -240
-12 -21 -248 -392 -381 -600 -120 -186 -156 -248 -156 -268 0 -31 20 -66 167
-296 l128 -200 98 1 c53 0 100 2 103 5 3 3 -11 32 -32 64 -80 128 -94 149
-101 159 -8 9 -141 224 -157 252 -6 10 397 652 955 1523 204 317 209 330 157
377 -19 17 -74 18 -1217 20 -658 1 -1205 -2 -1217 -7z"/>
</g>
</svg>
