<?xml version="1.0" encoding="utf-8"?><svg version="1.1" id="Layer_1" xmlns="http://www.w3.org/2000/svg" xmlns:xlink="http://www.w3.org/1999/xlink" x="0px" y="0px" viewBox="0 0 122.88 38.48" style="enable-background:new 0 0 122.88 38.48" xml:space="preserve"><style type="text/css"><![CDATA[
	.st0{fill:#E63E00;}
	.st1{fill:#FFFFFF;}
	.st2{fill-rule:evenodd;clip-rule:evenodd;fill:#FF4500;}
]]></style><g><path class="st2" d="M118.69,0H4.19C1.89,0,0,1.89,0,4.19v30.11c0,2.3,1.89,4.19,4.19,4.19h114.5c2.3,0,4.19-1.89,4.19-4.19V4.19 C122.88,1.89,120.99,0,118.69,0L118.69,0L118.69,0z"/><path class="st1" d="M51.99,21.11l3.13-0.23c0.07,0.59,0.21,1.04,0.42,1.34c0.34,0.5,0.82,0.75,1.46,0.75 c0.47,0,0.83-0.13,1.09-0.38c0.26-0.26,0.38-0.55,0.38-0.89c0-0.32-0.12-0.61-0.36-0.86c-0.24-0.25-0.8-0.49-1.68-0.72 c-1.45-0.38-2.47-0.88-3.09-1.5c-0.62-0.62-0.93-1.42-0.93-2.39c0-0.63,0.16-1.23,0.48-1.8c0.32-0.57,0.79-1.01,1.43-1.33 c0.64-0.32,1.51-0.48,2.62-0.48c1.36,0,2.4,0.29,3.12,0.89c0.72,0.59,1.14,1.53,1.28,2.81l-3.1,0.21 c-0.08-0.56-0.26-0.97-0.52-1.23c-0.27-0.26-0.63-0.38-1.1-0.38c-0.38,0-0.67,0.1-0.87,0.28s-0.29,0.42-0.29,0.69 c0,0.2,0.08,0.37,0.24,0.53c0.15,0.16,0.52,0.31,1.1,0.46c1.44,0.36,2.47,0.73,3.09,1.1c0.62,0.37,1.08,0.82,1.36,1.37 c0.28,0.54,0.42,1.16,0.42,1.83c0,0.79-0.19,1.53-0.57,2.2c-0.38,0.67-0.91,1.18-1.59,1.53c-0.68,0.35-1.53,0.52-2.57,0.52 c-1.81,0-3.07-0.41-3.77-1.22S52.08,22.36,51.99,21.11L51.99,21.11z M15.65,21.05c0,0.85,0.69,1.54,1.54,1.54 c0.85,0,1.54-0.69,1.54-1.54c0-0.85-0.69-1.54-1.54-1.54C16.34,19.5,15.65,20.19,15.65,21.05L15.65,21.05L15.65,21.05z M24.7,25.31 c0.13-0.14,0.12-0.37-0.02-0.5c-0.1-0.09-0.23-0.12-0.36-0.07c-2.1,1.52-4.94,1.52-7.05,0c-0.18-0.07-0.39,0.03-0.45,0.22 c-0.04,0.12-0.02,0.26,0.07,0.36C19.22,27.01,22.38,27.01,24.7,25.31L24.7,25.31z M22.86,21.05c0,0.85,0.69,1.54,1.54,1.54 c0.85,0,1.54-0.69,1.54-1.54c0-0.85-0.69-1.54-1.54-1.54C23.56,19.5,22.86,20.19,22.86,21.05L22.86,21.05L22.86,21.05z M21.59,10.14c0.06-0.25,0.31-0.41,0.56-0.35l3.86,0.85c0.24-0.46,0.69-0.77,1.2-0.82c0.84-0.09,1.59,0.52,1.68,1.36 s-0.52,1.59-1.36,1.68c-0.84,0.09-1.59-0.52-1.68-1.36l-3.5-0.77l-1.19,5.1c2.29,0.02,4.51,0.76,6.36,2.1 c0.09-0.1,0.2-0.19,0.31-0.26c1.01-0.72,2.42-0.48,3.14,0.54c0.04,0.07,0.08,0.14,0.12,0.21c0.57,1.15,0.1,2.55-1.05,3.12 c0.22,2-0.68,3.96-2.34,5.1c-2.02,1.41-4.43,2.14-6.89,2.08c-2.46,0.06-4.88-0.67-6.89-2.08c-1.66-1.14-2.56-3.1-2.34-5.1 c-0.07-0.04-0.14-0.08-0.21-0.12c-1.09-0.69-1.41-2.13-0.72-3.21c0.08-0.11,0.17-0.21,0.26-0.31c0.89-0.87,2.32-0.85,3.19,0.04 c1.8-1.31,3.95-2.04,6.18-2.1L21.59,10.14L21.59,10.14z M63.13,12.82h3.29v4.33h3.61v-4.33h3.31v12.39h-3.31v-5.02h-3.61v5.02 h-3.29V12.82L63.13,12.82z M82.1,23.17h-3.74l-0.54,2.04h-3.37l4.02-12.39h3.61l4,12.39h-3.45L82.1,23.17L82.1,23.17z M81.41,20.49 l-1.17-4.45l-1.17,4.45H81.41L81.41,20.49z M87.18,25.21V12.82h5.5c1.02,0,1.8,0.1,2.33,0.31c0.54,0.2,0.98,0.58,1.3,1.13 c0.33,0.55,0.5,1.22,0.5,2.01c0,0.69-0.13,1.28-0.38,1.78c-0.25,0.5-0.6,0.91-1.04,1.22c-0.28,0.2-0.67,0.36-1.16,0.49 c0.39,0.15,0.68,0.3,0.86,0.46c0.12,0.1,0.3,0.32,0.53,0.65c0.23,0.33,0.38,0.59,0.46,0.77l1.6,3.58h-3.73l-1.76-3.78 c-0.23-0.49-0.42-0.81-0.6-0.96c-0.24-0.19-0.51-0.29-0.81-0.29h-0.29v5.02H87.18L87.18,25.21z M90.49,17.86h1.39 c0.15,0,0.44-0.06,0.88-0.17c0.22-0.05,0.4-0.18,0.53-0.39c0.14-0.21,0.21-0.45,0.21-0.72c0-0.4-0.11-0.71-0.33-0.92 c-0.22-0.22-0.63-0.32-1.23-0.32h-1.45V17.86L90.49,17.86z M98.74,12.82h8.83v2.65h-5.52v1.97h5.11v2.53h-5.11v2.44h5.68v2.8h-8.99 V12.82L98.74,12.82z"/><polygon class="st0" points="40.66,0 40.66,38.48 38.27,38.48 38.27,0 40.66,0"/></g></svg>