<?xml version="1.0" encoding="utf-8"?><svg version="1.1" id="Layer_1" xmlns="http://www.w3.org/2000/svg" xmlns:xlink="http://www.w3.org/1999/xlink" x="0px" y="0px" viewBox="0 0 122.88 38.48" style="enable-background:new 0 0 122.88 38.48" xml:space="preserve"><style type="text/css"><![CDATA[
	.st0{fill:#1A91DA;}
	.st1{fill-rule:evenodd;clip-rule:evenodd;fill:#1DA1F2;}
	.st2{fill:#FFFFFF;}
]]></style><g><path class="st1" d="M118.69,0H4.19C1.89,0,0,1.89,0,4.19v30.11c0,2.3,1.89,4.19,4.19,4.19h114.5c2.3,0,4.19-1.89,4.19-4.19V4.19 C122.88,1.89,120.99,0,118.69,0L118.69,0L118.69,0z"/><path class="st2" d="M51.99,21.34l3.13-0.23c0.07,0.59,0.21,1.04,0.42,1.34c0.34,0.5,0.82,0.75,1.46,0.75 c0.47,0,0.83-0.13,1.09-0.38c0.26-0.26,0.38-0.55,0.38-0.89c0-0.32-0.12-0.61-0.36-0.86c-0.24-0.25-0.8-0.49-1.68-0.72 c-1.45-0.37-2.47-0.88-3.09-1.5c-0.62-0.62-0.93-1.42-0.93-2.39c0-0.63,0.16-1.23,0.48-1.8c0.32-0.57,0.79-1.01,1.43-1.34 c0.64-0.32,1.51-0.48,2.62-0.48c1.36,0,2.4,0.29,3.12,0.89c0.72,0.59,1.14,1.53,1.28,2.81l-3.1,0.21 c-0.08-0.56-0.26-0.97-0.52-1.23c-0.27-0.26-0.63-0.38-1.1-0.38c-0.38,0-0.67,0.1-0.87,0.28s-0.29,0.42-0.29,0.69 c0,0.2,0.08,0.37,0.24,0.53c0.15,0.16,0.52,0.31,1.1,0.46c1.44,0.36,2.47,0.73,3.09,1.1c0.62,0.37,1.08,0.82,1.36,1.37 c0.28,0.54,0.42,1.16,0.42,1.83c0,0.79-0.19,1.53-0.57,2.2c-0.38,0.67-0.91,1.18-1.59,1.53c-0.68,0.35-1.53,0.52-2.57,0.52 c-1.81,0-3.07-0.41-3.77-1.22C52.48,23.62,52.08,22.59,51.99,21.34L51.99,21.34z M31.01,12.91c-0.75,0.34-1.56,0.56-2.4,0.66 c0.86-0.52,1.53-1.34,1.84-2.32c-0.81,0.48-1.71,0.83-2.66,1.02c-0.77-0.81-1.85-1.32-3.06-1.32c-2.31,0-4.19,1.87-4.19,4.19 c0,0.33,0.04,0.65,0.11,0.95c-3.48-0.18-6.57-1.84-8.63-4.38c-0.37,0.64-0.57,1.37-0.57,2.11l0,0c0,1.45,0.74,2.74,1.86,3.48 c-0.69-0.02-1.33-0.21-1.9-0.52v0.05c0,2.03,1.44,3.72,3.36,4.11c-0.35,0.1-0.72,0.15-1.1,0.15c-0.27,0-0.53-0.03-0.79-0.07 c0.54,1.66,2.08,2.87,3.91,2.91c-1.44,1.13-3.24,1.79-5.2,1.79c-0.34,0-0.67-0.02-1-0.06c1.86,1.19,4.06,1.88,6.42,1.88 c7.7,0,11.92-6.38,11.92-11.92c0-0.18,0-0.36-0.01-0.54C29.74,14.49,30.45,13.75,31.01,12.91L31.01,12.91L31.01,12.91L31.01,12.91 L31.01,12.91z M63.13,13.05h3.29v4.33h3.61v-4.33h3.31v12.39h-3.31v-5.02h-3.61v5.02h-3.29V13.05L63.13,13.05z M82.1,23.39h-3.74 l-0.54,2.04h-3.37l4.02-12.39h3.61l4,12.39h-3.45L82.1,23.39L82.1,23.39z M81.41,20.71l-1.17-4.45l-1.17,4.45H81.41L81.41,20.71z M87.18,25.44V13.05h5.5c1.02,0,1.8,0.1,2.33,0.31c0.54,0.2,0.98,0.58,1.3,1.13c0.33,0.55,0.5,1.22,0.5,2.01 c0,0.69-0.13,1.28-0.38,1.78c-0.25,0.5-0.6,0.91-1.04,1.22c-0.28,0.2-0.67,0.36-1.16,0.49c0.39,0.15,0.68,0.3,0.86,0.46 c0.12,0.1,0.3,0.32,0.53,0.65c0.23,0.33,0.38,0.59,0.46,0.77l1.6,3.58h-3.73l-1.76-3.78c-0.23-0.49-0.42-0.81-0.6-0.95 c-0.24-0.19-0.51-0.29-0.81-0.29h-0.29v5.02H87.18L87.18,25.44z M90.49,18.08h1.39c0.15,0,0.44-0.06,0.88-0.17 c0.22-0.05,0.4-0.18,0.53-0.39c0.14-0.21,0.21-0.45,0.21-0.72c0-0.4-0.11-0.71-0.33-0.92c-0.22-0.21-0.63-0.32-1.23-0.32h-1.45 V18.08L90.49,18.08z M98.74,13.05h8.83v2.65h-5.52v1.97h5.11v2.53h-5.11v2.44h5.68v2.8h-8.99V13.05L98.74,13.05z"/><polygon class="st0" points="40.66,0 40.66,38.48 38.27,38.48 38.27,0 40.66,0"/></g></svg>