<?xml version="1.0" encoding="utf-8"?>
<!-- Svg Vector Icons : http://www.onlinewebfonts.com/icon -->
<!DOCTYPE svg PUBLIC "-//W3C//DTD SVG 1.1//EN" "http://www.w3.org/Graphics/SVG/1.1/DTD/svg11.dtd">
<svg version="1.1" xmlns="http://www.w3.org/2000/svg" xmlns:xlink="http://www.w3.org/1999/xlink" x="0px" y="0px" viewBox="0 0 1000 1000" enable-background="new 0 0 1000 1000" xml:space="preserve">
<metadata> Svg Vector Icons : http://www.onlinewebfonts.com/icon </metadata>
<g><path d="M418.3,91.7h-81.7V10h81.7V91.7L418.3,91.7z M91.7,581.7H10v81.7h81.7V581.7z M91.7,459.2H10v81.7h81.7V459.2z M91.7,336.7H10v81.7h81.7V336.7z M91.7,132.5c0-22.5,18.3-40.8,40.8-40.8h163.3V10H132.5C64.8,10,10,64.9,10,132.5v163.3h81.7V132.5z M540.8,10h-81.7v81.7h81.7V10z M663.3,10h-81.7v81.7h81.7V10z M527.4,484.1c0-13.3-8.7-16.2-22-16.2h-19v32.4h19C518.7,500.2,527.4,497.4,527.4,484.1z M173.3,173.3h653.3v653.3H173.3V173.3z M583.4,524.3c0,38.6,22.4,57.3,60.7,57.3c37.4,0,60.9-18.7,60.9-57.3v-86.9h-37v86.9c0,19.5-6.6,25.2-23.8,25.2c-18.1,0-23.8-8.6-23.8-25.2v-86.9h-36.9V524.3z M449.3,578.7h37v-47.9h27c32.2,0,50-19.4,50-46.7c0-27.8-18.3-46.7-50-46.7h-64.1V578.7L449.3,578.7z M296.7,508.6c0,41.2,26.4,73.1,69.5,73.1c33.7,0,59.1-19.5,62.9-62.1h-36c-6,44.8-59.4,39.3-59.4-10.9c0-23,9.3-42.1,32.5-42.1c12.5,0,23.5,7.6,25.8,23.4h36c-3.7-37.6-29.8-55.7-61.8-55.7C323.3,434.2,296.7,466.4,296.7,508.6z M908.3,540.8H990v-81.7h-81.7V540.8L908.3,540.8z M91.7,867.5V704.2H10v163.3C10,935.1,64.8,990,132.5,990h163.3v-81.7H132.5C110,908.3,91.7,890,91.7,867.5z M908.3,867.5c0,22.5-18.3,40.8-40.8,40.8H704.2V990h163.3c67.7,0,122.5-54.9,122.5-122.5V704.2h-81.7V867.5L908.3,867.5z M908.3,663.3H990v-81.7h-81.7V663.3L908.3,663.3z M908.3,418.3H990v-81.7h-81.7V418.3L908.3,418.3z M867.5,10H704.2v81.7h163.3c22.5,0,40.8,18.3,40.8,40.8v163.3H990V132.5C990,64.9,935.2,10,867.5,10z M336.7,990h81.7v-81.7h-81.7V990L336.7,990z M581.7,990h81.7v-81.7h-81.7V990z M459.2,990h81.7v-81.7h-81.7V990L459.2,990z"/></g>
</svg>